<?xml version="1.0" encoding="UTF-8" standalone="no"?>
<svg
   xmlns:dc="http://purl.org/dc/elements/1.1/"
   xmlns:cc="http://creativecommons.org/ns#"
   xmlns:rdf="http://www.w3.org/1999/02/22-rdf-syntax-ns#"
   xmlns:svg="http://www.w3.org/2000/svg"
   xmlns="http://www.w3.org/2000/svg"
   xmlns:sodipodi="http://sodipodi.sourceforge.net/DTD/sodipodi-0.dtd"
   xmlns:inkscape="http://www.inkscape.org/namespaces/inkscape"
   width="42mm"
   height="87.99999999999997mm"
   viewBox="29 -96.99999999999997 42 87.99999999999997"
   version="1.1"
   id="svg853"
   sodipodi:docname="legendas.svg"
   inkscape:version="1.0.2-2 (e86c870879, 2021-01-15)">
  <metadata
     id="metadata859">
    <rdf:RDF>
      <cc:Work
         rdf:about="">
        <dc:format>image/svg+xml</dc:format>
        <dc:type
           rdf:resource="http://purl.org/dc/dcmitype/StillImage" />
      </cc:Work>
    </rdf:RDF>
  </metadata>
  <defs
     id="defs857" />
  <sodipodi:namedview
     pagecolor="#ffffff"
     bordercolor="#666666"
     borderopacity="1"
     objecttolerance="10"
     gridtolerance="10"
     guidetolerance="10"
     inkscape:pageopacity="0"
     inkscape:pageshadow="2"
     inkscape:window-width="1280"
     inkscape:window-height="737"
     id="namedview855"
     showgrid="false"
     inkscape:zoom="1.6469701"
     inkscape:cx="79.370079"
     inkscape:cy="166.29921"
     inkscape:window-x="-8"
     inkscape:window-y="-8"
     inkscape:window-maximized="1"
     inkscape:current-layer="svg853" />
  <title
     id="title847">svgOutput</title>
  <desc
     id="desc849">made with tinkercad</desc>
  <path
     d="M 33.847999572753906 -24.76499938964843 L 33.91227340698242 -24.57600021362304 L 33.93199920654297 -24.517999649047844 L 33.983001708984375 -24.260999679565423 L 34 -23.999999999999993 L 33.983001708984375 -23.739000320434567 L 33.93199920654297 -23.482000350952145 L 33.847999572753906 -23.23500061035156 L 33.731998443603516 -22.999999999999996 L 33.58700180053711 -22.78199958801269 L 33.41400146484375 -22.58600044250488 L 33.21799850463867 -22.41300010681152 L 33 -22.267999649047848 L 32.768001556396484 -22.153480529785153 L 32.76499938964844 -22.15200042724609 L 32.518001556396484 -22.068000793457028 L 32.26100158691406 -22.017000198364254 L 32 -21.999999999999996 L 31.73900032043457 -22.017000198364254 L 31.48200035095215 -22.068000793457028 L 31.235000610351562 -22.15200042724609 L 31 -22.267999649047848 L 30.781999588012695 -22.41300010681152 L 30.719999313354492 -22.467723846435543 L 30.586000442504883 -22.58600044250488 L 30.413000106811523 -22.78199958801269 L 30.26799964904785 -22.999999999999996 L 30.152000427246094 -23.23500061035156 L 30.06800079345703 -23.482000350952145 L 30.017000198364258 -23.739000320434567 L 30 -23.999999999999993 L 30.017000198364258 -24.260999679565423 L 30.06800079345703 -24.517999649047844 L 30.087724685668945 -24.57600021362304 L 30.152000427246094 -24.76499938964843 L 30.26799964904785 -24.999999999999993 L 30.413000106811523 -25.218000411987298 L 30.586000442504883 -25.41399955749511 L 30.781999588012695 -25.58699989318847 L 31 -25.73200035095214 L 31.235000610351562 -25.8479995727539 L 31.48200035095215 -25.93199920654296 L 31.73900032043457 -25.982999801635735 L 32 -25.999999999999993 L 32.26100158691406 -25.982999801635735 L 32.518001556396484 -25.93199920654296 L 32.76499938964844 -25.8479995727539 L 32.768001556396484 -25.846519470214837 L 33 -25.73200035095214 L 33.21799850463867 -25.58699989318847 L 33.41400146484375 -25.41399955749511 L 33.58700180053711 -25.218000411987298 L 33.731998443603516 -24.999999999999993 L 33.847999572753906 -24.76499938964843 M 42.143001556396484 -95.95099639892577 L 42.143001556396484 -94.20800018310545 L 42.143001556396484 -94.18099975585936 L 42.16699981689453 -93.97000122070311 L 42.237998962402344 -93.80999755859374 L 42.35100173950195 -93.70999908447264 L 42.500999450683594 -93.67700195312499 L 42.64899826049805 -93.70999908447264 L 42.762001037597656 -93.80799865722655 L 42.83300018310547 -93.96700286865233 L 42.856998443603516 -94.18099975585936 L 42.856998443603516 -94.20800018310545 L 42.856998443603516 -95.95099639892577 L 43 -95.95099639892577 L 43.5 -95.95099639892577 L 43.5 -94.2220001220703 L 43.49832534790039 -94.20800018310545 L 43.44200134277344 -93.73699951171874 L 43.262001037597656 -93.33699798583983 L 43.007999420166016 -93.10163116455077 L 43.00299835205078 -93.0970001220703 L 43 -93.09593963623045 L 42.856998443603516 -93.04550933837889 L 42.79600143432617 -93.0240020751953 L 42.72647476196289 -93.01715850830077 L 42.551998138427734 -92.99999999999999 L 42.40704345703125 -93.01309967041014 L 42.220001220703125 -93.02999877929686 L 41.98400115966797 -93.12173461914061 L 41.91899871826172 -93.14700317382811 L 41.696998596191406 -93.3980026245117 L 41.560001373291016 -93.73200225830077 L 41.501712799072266 -94.20800018310545 L 41.5 -94.2220001220703 L 41.5 -95.95099639892577 L 42.143001556396484 -95.95099639892577 M 45.89099884033203 -95.90100097656249 L 46 -95.90100097656249 L 46.5 -95.90100097656249 L 46.5 -92.99999999999999 L 46 -92.99999999999999 L 45.89099884033203 -92.99999999999999 L 45.108001708984375 -94.59300231933592 L 45.108001708984375 -92.99999999999999 L 45 -92.99999999999999 L 44.5 -92.99999999999999 L 44.5 -95.90100097656249 L 45 -95.90100097656249 L 45.10300064086914 -95.90100097656249 L 45.108001708984375 -95.89081573486327 L 45.89099884033203 -94.29599761962889 L 45.89099884033203 -95.90100097656249 M 48.92300033569336 -95.90299987792967 L 49 -95.84838104248045 L 49.095001220703125 -95.78099822998045 L 49.152000427246094 -95.71370697021483 L 49.23899841308594 -95.61100006103514 L 49.35300064086914 -95.39700317382811 L 49.435001373291016 -95.1439971923828 L 49.5 -94.52200317382811 L 49.48101043701172 -94.20800018310545 L 49.47200012207031 -94.05899810791014 L 49.38600158691406 -93.68800354003905 L 49.24700164794922 -93.3980026245117 L 49.152000427246094 -93.28949737548827 L 49.05699920654297 -93.18099975585936 L 49 -93.14896392822264 L 48.814998626708984 -93.0449981689453 L 48.806331634521484 -93.04367828369139 L 48.63398361206055 -93.0173873901367 L 48.52000045776367 -92.99999999999999 L 48.451942443847656 -93.00890350341795 L 48.22200012207031 -93.03900146484374 L 48.21902084350586 -93.04044342041014 L 48.12799835205078 -93.08444976806639 L 48 -93.14633178710936 L 47.97999954223633 -93.15599822998045 L 47.7859992980957 -93.35800170898436 L 47.632999420166016 -93.65100097656249 L 47.53300094604492 -94.03199768066405 L 47.520538330078125 -94.20800018310545 L 47.5 -94.4980010986328 L 47.566001892089844 -95.12999725341795 L 47.59854507446289 -95.23200225830077 L 47.64799880981445 -95.38700103759764 L 47.76300048828125 -95.60399627685545 L 47.90800094604492 -95.77700042724608 L 48 -95.84410858154295 L 48.077999114990234 -95.90100097656249 L 48.49700164794922 -95.99999999999997 L 48.89437484741211 -95.90951538085936 L 48.92300033569336 -95.90299987792967 M 54.992000579833984 -95.92900085449217 L 55 -95.92312622070311 L 55.13100051879883 -95.82700347900389 L 55.24100112915039 -95.66500091552733 L 55.29600143432617 -95.49685668945311 L 55.31100082397461 -95.45099639892577 L 55.334999084472656 -95.1949996948242 L 55.31700134277344 -94.97000122070311 L 55.29600143432617 -94.89533233642577 L 55.26300048828125 -94.77799987792967 L 55.06399917602539 -94.49400329589842 L 55 -94.46054840087889 L 54.912208557128906 -94.41465759277342 L 54.84400177001953 -94.37899780273436 L 55 -94.27659606933592 L 55.00699996948242 -94.27200317382811 L 55.04952621459961 -94.20800018310545 L 55.108001708984375 -94.12000274658202 L 55.19599914550781 -93.94000244140624 L 55.5 -93.09899902343749 L 55 -93.09899902343749 L 54.90744400024414 -93.09899902343749 L 54.790000915527344 -93.09899902343749 L 54.45399856567383 -93.98600006103514 L 54.340511322021484 -94.20800018310545 L 54.34000015258789 -94.20899963378905 L 54.27199935913086 -94.23921966552733 L 54.1870002746582 -94.27700042724608 L 54.13100051879883 -94.27700042724608 L 54.13100051879883 -94.20800018310545 L 54.13100051879883 -93.09899902343749 L 54 -93.09899902343749 L 53.5 -93.09899902343749 L 53.5 -95.99999999999997 L 54 -95.99999999999997 L 54.13100051879883 -95.99999999999997 L 54.27199935913086 -95.99999999999997 L 54.547000885009766 -95.99999999999997 L 54.992000579833984 -95.92900085449217 M 53.861000061035156 -12.527999877929684 L 53.90697479248047 -12.28800010681152 L 53.91999816894531 -12.220000267028805 L 53.82600021362305 -11.854000091552733 L 53.783782958984375 -11.80698776245117 L 53.60599899291992 -11.60900020599365 L 53.902000427246094 -11.310000419616697 L 53.912940979003906 -11.263999938964842 L 54 -10.897999763488768 L 53.91600036621094 -10.491999626159666 L 53.74180603027344 -10.246276855468748 L 53.73735427856445 -10.239999771118162 L 53.70899963378906 -10.199999809265135 L 53.40299987792969 -10.048999786376951 L 53.01300048828125 -9.999999999999998 L 52.66999816894531 -10.027000427246092 L 52.41899871826172 -10.10900020599365 L 52.2420539855957 -10.239999771118162 L 52.237998962402344 -10.243000030517576 L 52.106998443603516 -10.42899990081787 L 52 -10.902000427246092 L 52.08360290527344 -11.263999938964842 L 52.099998474121094 -11.33500003814697 L 52.2239990234375 -11.488291740417479 L 52.22700119018555 -11.491999626159666 L 52.409000396728516 -11.60900020599365 L 52.2239990234375 -11.786884307861326 L 52.17499923706055 -11.83399963378906 L 52.07500076293945 -12.225999832153317 L 52.08848571777344 -12.28800010681152 L 52.14699935913086 -12.557000160217282 L 52.36399841308594 -12.821999549865719 L 52.625999450683594 -12.954999923706051 L 52.82978057861328 -12.98245525360107 L 52.959999084472656 -12.999999999999996 L 53.10380554199219 -12.981476783752438 L 53.24800109863281 -12.962903976440426 L 53.387001037597656 -12.944999694824215 L 53.685001373291016 -12.777999877929684 L 53.861000061035156 -12.527999877929684 M 50.86800003051758 -12.376000404357907 L 50.891048431396484 -12.28800010681152 L 50.96699905395508 -11.998000144958494 L 50.97510528564453 -11.87961673736572 L 51 -11.515999794006346 L 50.97446823120117 -11.263999938964842 L 50.930999755859375 -10.83500003814697 L 50.89699935913086 -10.757798194885252 L 50.7239990234375 -10.364999771118162 L 50.57345199584961 -10.239999771118162 L 50.39400100708008 -10.090999603271483 L 49.957000732421875 -9.999999999999998 L 49.5 -10.079999923706053 L 49.31072235107422 -10.239999771118162 L 49.282073974609375 -10.264218330383299 L 49.22200012207031 -10.314999580383299 L 49.05099868774414 -10.701000213623045 L 49.3918571472168 -10.75179862976074 L 49.72200012207031 -10.800999641418455 L 49.81100082397461 -10.564000129699705 L 49.96500015258789 -10.49499988555908 L 50.11000061035156 -10.543999671936033 L 50.11497497558594 -10.550708770751951 L 50.21900177001953 -10.69099998474121 L 50.25371551513672 -10.905261039733885 L 50.291053771972656 -11.135704040527342 L 50.31184387207031 -11.263999938964842 L 50.31800079345703 -11.302000045776365 L 50.2747688293457 -11.263999938964842 L 50.06999969482422 -11.08399963378906 L 49.775001525878906 -11.015000343322752 L 49.4739990234375 -11.08399963378906 L 49.257652282714844 -11.263999938964842 L 49.2239990234375 -11.29199981689453 L 49.20216751098633 -11.33280849456787 L 49.152000427246094 -11.426571846008299 L 49.055999755859375 -11.605999946594237 L 49 -11.993000030517576 L 49.02899932861328 -12.269000053405758 L 49.03546142578125 -12.28800010681152 L 49.11399841308594 -12.519000053405758 L 49.25 -12.72799968719482 L 49.42900085449219 -12.87800025939941 L 49.654998779296875 -12.970000267028805 L 49.93199920654297 -12.999999999999996 L 49.998046875 -12.99254989624023 L 50.2599983215332 -12.963000297546383 L 50.34092712402344 -12.927732467651364 L 50.516998291015625 -12.850999832153317 L 50.69367218017578 -12.677895545959469 L 50.71500015258789 -12.656999588012692 L 50.86800003051758 -12.376000404357907 M 69.8479995727539 -24.76499938964843 L 69.91227722167969 -24.57600021362304 L 69.93199920654297 -24.517999649047844 L 69.98300170898438 -24.260999679565423 L 70 -23.999999999999993 L 69.98300170898438 -23.739000320434567 L 69.93199920654297 -23.482000350952145 L 69.8479995727539 -23.23500061035156 L 69.73200225830078 -22.999999999999996 L 69.63200378417969 -22.849655151367184 L 69.58699798583984 -22.78199958801269 L 69.41400146484375 -22.58600044250488 L 69.21800231933594 -22.41300010681152 L 69 -22.267999649047848 L 68.76499938964844 -22.15200042724609 L 68.51799774169922 -22.068000793457028 L 68.26100158691406 -22.017000198364254 L 68 -21.999999999999996 L 67.73899841308594 -22.017000198364254 L 67.58399963378906 -22.04775810241699 L 67.48200225830078 -22.068000793457028 L 67.23500061035156 -22.15200042724609 L 67 -22.267999649047848 L 66.78199768066406 -22.41300010681152 L 66.58599853515625 -22.58600044250488 L 66.41300201416016 -22.78199958801269 L 66.26799774169922 -22.999999999999996 L 66.1520004272461 -23.23500061035156 L 66.06800079345703 -23.482000350952145 L 66.01699829101562 -23.739000320434567 L 66 -23.999999999999993 L 66.01699829101562 -24.260999679565423 L 66.06800079345703 -24.517999649047844 L 66.08772277832031 -24.57600021362304 L 66.1520004272461 -24.76499938964843 L 66.26799774169922 -24.999999999999993 L 66.41300201416016 -25.218000411987298 L 66.58599853515625 -25.41399955749511 L 66.78199768066406 -25.58699989318847 L 67 -25.73200035095214 L 67.23500061035156 -25.8479995727539 L 67.48200225830078 -25.93199920654296 L 67.58399963378906 -25.952241897583 L 67.73899841308594 -25.982999801635735 L 68 -25.999999999999993 L 68.26100158691406 -25.982999801635735 L 68.51799774169922 -25.93199920654296 L 68.76499938964844 -25.8479995727539 L 69 -25.73200035095214 L 69.21800231933594 -25.58699989318847 L 69.41400146484375 -25.41399955749511 L 69.58699798583984 -25.218000411987298 L 69.63200378417969 -25.150344848632805 L 69.73200225830078 -24.999999999999993 L 69.8479995727539 -24.76499938964843 M 57.00299835205078 -93.09300231933592 L 57 -93.09559631347655 L 56.99607467651367 -93.09899902343749 L 56.907779693603516 -93.17548370361327 L 56.68899917602539 -93.36499786376952 L 56.5 -93.81500244140624 L 56.703277587890625 -93.8473663330078 L 57 -93.89461517333983 L 57.172000885009766 -93.92199707031249 L 57.29499816894531 -93.58499908447264 L 57.50699996948242 -93.49099731445311 L 57.733001708984375 -93.61000061035155 L 57.823001861572266 -93.92600250244139 L 57.7446174621582 -94.20800018310545 L 57.736000061035156 -94.23899841308592 L 57.500999450683594 -94.34999847412108 L 57.38900375366211 -94.32534027099608 L 57.34400177001953 -94.31542968749999 L 57.28300094604492 -94.30200195312499 L 57.31800079345703 -94.87799835205077 L 57.34400177001953 -94.87501525878905 L 57.404998779296875 -94.8679962158203 L 57.625999450683594 -94.96900177001952 L 57.7140007019043 -95.20800018310545 L 57.709556579589844 -95.22226715087889 L 57.70652770996094 -95.23200225830077 L 57.64799880981445 -95.4199981689453 L 57.465999603271484 -95.49900054931639 L 57.34400177001953 -95.44464111328124 L 57.27299880981445 -95.41300201416014 L 57.172000885009766 -95.11100006103514 L 57 -95.14804840087889 L 56.5359992980957 -95.2480010986328 L 56.652000427246094 -95.5699996948242 L 56.840999603271484 -95.80599975585936 L 57 -95.89134216308592 L 57.112998962402344 -95.95200347900389 L 57.34400177001953 -95.98229217529295 L 57.479000091552734 -95.99999999999997 L 57.88800048828125 -95.94699859619139 L 58.14295959472656 -95.80065155029295 L 58.165000915527344 -95.78800201416014 L 58.323001861572266 -95.5490036010742 L 58.375999450683594 -95.25599670410155 L 58.369930267333984 -95.23200225830077 L 58.30550765991211 -94.97730255126952 L 58.290000915527344 -94.91600036621092 L 58.10625457763672 -94.72586822509764 L 58.03099822998047 -94.6480026245117 L 58.24599838256836 -94.55100250244139 L 58.43299865722656 -94.31700134277342 L 58.454044342041016 -94.20800018310545 L 58.5 -93.97000122070311 L 58.388999938964844 -93.48400115966795 L 58.25400161743164 -93.27799987792967 L 58.07099914550781 -93.12599945068358 L 58.04789733886719 -93.11688995361327 L 58.002506256103516 -93.09899902343749 L 57.83000183105469 -93.03099822998045 L 57.5603141784668 -93.00367736816405 L 57.52399826049805 -92.99999999999999 L 57.00299835205078 -93.09300231933592 M 56.39099884033203 -12.999999999999996 L 57 -12.999999999999996 L 57 -9.999999999999998 L 56.39099884033203 -9.999999999999998 L 55.608001708984375 -11.647000312805174 L 55.608001708984375 -9.999999999999998 L 55 -9.999999999999998 L 55 -12.999999999999996 L 55.60300064086914 -12.999999999999996 L 55.608001708984375 -12.98946666717529 L 56.39099884033203 -11.340000152587889 L 56.39099884033203 -12.999999999999996 M 47.95600128173828 -12.381999969482418 L 47.966922760009766 -12.28800010681152 L 47.98400115966797 -12.140999794006344 L 47.95199966430664 -11.876999855041502 L 47.94938659667969 -11.870237350463865 L 47.85499954223633 -11.626000404357908 L 47.67399978637695 -11.368000030517576 L 47.56814956665039 -11.263999938964842 L 47.38800048828125 -11.086999893188475 L 47.11899948120117 -10.84700012207031 L 46.95899963378906 -10.66800022125244 L 48 -10.66800022125244 L 48 -10.239999771118162 L 48 -9.999999999999998 L 46 -9.999999999999998 L 46.046913146972656 -10.239999771118162 L 46.069000244140625 -10.352999687194822 L 46.20183181762695 -10.66800022125244 L 46.20899963378906 -10.685000419616697 L 46.45899963378906 -11.034999847412108 L 46.68575668334961 -11.263999938964842 L 46.862998962402344 -11.442999839782713 L 47.23699951171875 -11.848999977111815 L 47.264610290527344 -11.93789482116699 L 47.319000244140625 -12.112999916076657 L 47.25736999511719 -12.28800010681152 L 47.237998962402344 -12.343000411987301 L 47.034000396728516 -12.439000129699703 L 46.82600021362305 -12.340000152587887 L 46.80971145629883 -12.28800010681152 L 46.71699905395508 -11.991999626159666 L 46.04899978637695 -12.057999610900875 L 46.11022186279297 -12.28800010681152 L 46.19300079345703 -12.598999977111813 L 46.48899841308594 -12.895999908447262 L 47.01599884033203 -12.999999999999996 L 47.031829833984375 -12.99714088439941 L 47.56399917602539 -12.90100002288818 L 47.73899841308594 -12.77600002288818 L 47.73979568481445 -12.774931907653805 L 47.87099838256836 -12.598999977111813 L 47.95600128173828 -12.381999969482418 M 43 -12.999999999999996 L 43.78099822998047 -12.999999999999996 L 43.78099822998047 -10.739000320434569 L 45 -10.739000320434569 L 45 -9.999999999999998 L 43 -9.999999999999998 L 43 -10.739000320434569 L 43 -12.999999999999996 M 48.09600067138672 -94.49400329589842 L 48.11724090576172 -94.20800018310545 L 48.124000549316406 -94.1169967651367 L 48.12799835205078 -94.1001739501953 L 48.15800094604492 -93.97399902343749 L 48.20500183105469 -93.86299896240233 L 48.263999938964844 -93.77899932861327 L 48.33300018310547 -93.71900177001952 L 48.500999450683594 -93.67099761962889 L 48.67100143432617 -93.71800231933592 L 48.7400016784668 -93.77700042724608 L 48.79800033569336 -93.85900115966795 L 48.84400177001953 -93.9720001220703 L 48.87699890136719 -94.1220016479492 L 48.88263702392578 -94.20800018310545 L 48.90399932861328 -94.53399658203124 L 48.875999450683594 -94.88800048828124 L 48.84199905395508 -95.0240020751953 L 48.79399871826172 -95.13200378417967 L 48.702449798583984 -95.23200225830077 L 48.66400146484375 -95.2740020751953 L 48.494998931884766 -95.3209991455078 L 48.33300018310547 -95.2730026245117 L 48.29684066772461 -95.23200225830077 L 48.20600128173828 -95.12899780273436 L 48.15800094604492 -95.0179977416992 L 48.124000549316406 -94.87400054931639 L 48.09600067138672 -94.49400329589842 M 53.194000244140625 -12.414999961853024 L 53.104000091552734 -12.486000061035153 L 52.99300003051758 -12.508999824523922 L 52.88100051879883 -12.486000061035153 L 52.79199981689453 -12.416999816894528 L 52.73400115966797 -12.3120002746582 L 52.73057174682617 -12.28800010681152 L 52.71500015258789 -12.178999900817868 L 52.73400115966797 -12.043000221252438 L 52.79399871826172 -11.935999870300291 L 52.851078033447266 -11.893192291259764 L 52.88600158691406 -11.866999626159666 L 53.005001068115234 -11.843999862670897 L 53.111000061035156 -11.866999626159666 L 53.196998596191406 -11.935000419616697 L 53.24800109863281 -12.03062534332275 L 53.25299835205078 -12.039999961853024 L 53.27199935913086 -12.170999526977536 L 53.255653381347656 -12.28800010681152 L 53.25299835205078 -12.307000160217282 L 53.24800109863281 -12.316152572631832 L 53.194000244140625 -12.414999961853024 M 52.875 -11.340000152587889 L 52.787044525146484 -11.263999938964842 L 52.77199935913086 -11.251000404357908 L 52.70100021362305 -11.111000061035154 L 52.678001403808594 -10.93000030517578 L 52.70199966430664 -10.75599956512451 L 52.7760009765625 -10.616000175476072 L 52.88199996948242 -10.524999618530272 L 53.00199890136719 -10.49499988555908 L 53.117000579833984 -10.526000022888182 L 53.220001220703125 -10.618000030517576 L 53.24800109863281 -10.672081947326658 L 53.292999267578125 -10.758999824523924 L 53.31700134277344 -10.932000160217283 L 53.292999267578125 -11.107000350952147 L 53.24800109863281 -11.193301200866697 L 53.220001220703125 -11.246999740600584 L 53.20041275024414 -11.263999938964842 L 53.11399841308594 -11.338999748229979 L 52.99300003051758 -11.369000434875487 L 52.88037109375 -11.341320037841795 L 52.875 -11.340000152587889 M 50.268001556396484 -12.204999923706051 L 50.2293701171875 -12.28800010681152 L 50.194000244140625 -12.364000320434567 L 50.08399963378906 -12.463999748229977 L 49.95199966430664 -12.496999740600582 L 49.82899856567383 -12.467000007629391 L 49.729000091552734 -12.3769998550415 L 49.69009780883789 -12.28800010681152 L 49.66299819946289 -12.225999832153317 L 49.64099884033203 -12.01399993896484 L 49.66400146484375 -11.800000190734862 L 49.733001708984375 -11.642000198364256 L 49.83599853515625 -11.545999526977537 L 49.96200180053711 -11.513999938964842 L 50.09199905395508 -11.545000076293944 L 50.17599868774414 -11.618794441223143 L 50.19900131225586 -11.638999938964842 L 50.26900100708008 -11.789999961853026 L 50.292999267578125 -11.99499988555908 L 50.268001556396484 -12.204999923706051 M 54.6879997253418 -95.2480010986328 L 54.66899871826172 -95.29699707031249 L 54.64099884033203 -95.33899688720702 L 54.60300064086914 -95.3720016479492 L 54.551998138427734 -95.39600372314452 L 54.40700149536133 -95.41400146484374 L 54.27199935913086 -95.41400146484374 L 54.13100051879883 -95.41400146484374 L 54.13100051879883 -94.82499694824217 L 54.27199935913086 -94.82499694824217 L 54.395999908447266 -94.82499694824217 L 54.5620002746582 -94.86399841308592 L 54.599605560302734 -94.88510894775389 L 54.61899948120117 -94.89600372314452 L 54.66400146484375 -94.95500183105467 L 54.694000244140625 -95.03399658203124 L 54.70399856567383 -95.1230010986328 L 54.69004821777344 -95.23200225830077 L 54.6879997253418 -95.2480010986328 z"
     fill="none"
     stroke="rgb(255,0,0)"
     stroke-width="0.001mm"
     id="path851"
     style="stroke-width:0.4;stroke-miterlimit:4;stroke-dasharray:none;stroke:#0000ff;stroke-opacity:1" />
</svg>
