<?xml version="1.0" encoding="UTF-8" standalone="no"?>
<svg
   xmlns:dc="http://purl.org/dc/elements/1.1/"
   xmlns:cc="http://creativecommons.org/ns#"
   xmlns:rdf="http://www.w3.org/1999/02/22-rdf-syntax-ns#"
   xmlns:svg="http://www.w3.org/2000/svg"
   xmlns="http://www.w3.org/2000/svg"
   xmlns:sodipodi="http://sodipodi.sourceforge.net/DTD/sodipodi-0.dtd"
   xmlns:inkscape="http://www.inkscape.org/namespaces/inkscape"
   width="88mm"
   height="33mm"
   viewBox="6 -162.99999999999997 88 33"
   version="1.1"
   id="svg8"
   sodipodi:docname="olhos.svg"
   inkscape:version="1.0.2-2 (e86c870879, 2021-01-15)">
  <metadata
     id="metadata14">
    <rdf:RDF>
      <cc:Work
         rdf:about="">
        <dc:format>image/svg+xml</dc:format>
        <dc:type
           rdf:resource="http://purl.org/dc/dcmitype/StillImage" />
      </cc:Work>
    </rdf:RDF>
  </metadata>
  <defs
     id="defs12" />
  <sodipodi:namedview
     pagecolor="#ffffff"
     bordercolor="#666666"
     borderopacity="1"
     objecttolerance="10"
     gridtolerance="10"
     guidetolerance="10"
     inkscape:pageopacity="0"
     inkscape:pageshadow="2"
     inkscape:window-width="1920"
     inkscape:window-height="1017"
     id="namedview10"
     showgrid="false"
     inkscape:zoom="4.1401278"
     inkscape:cx="166.29921"
     inkscape:cy="101.00835"
     inkscape:window-x="-8"
     inkscape:window-y="-8"
     inkscape:window-maximized="1"
     inkscape:current-layer="svg8" />
  <title
     id="title2">svgOutput</title>
  <desc
     id="desc4">made with tinkercad</desc>
  <path
     d="M 26 -161.99999999999997 L 35 -161.99999999999997 L 35 -157.99999999999997 L 39.99800109863281 -157.99999999999997 L 40.02299880981445 -157.47799682617185 L 40.099998474121094 -156.96400451660153 L 40.22600173950195 -156.4680023193359 L 40.400001525878906 -155.99899291992185 L 40.57550048828125 -155.64799499511716 L 40.61800003051758 -155.56300354003903 L 40.875999450683594 -155.16999816894528 L 41.172000885009766 -154.82499694824216 L 41.49800109863281 -154.53399658203122 L 41.849998474121094 -154.30200195312497 L 42.22200012207031 -154.13400268554685 L 42.2487678527832 -154.12690734863278 L 42.606998443603516 -154.03199768066403 L 42.99800109863281 -153.99800109863278 L 43.559974670410156 -153.99800109863278 L 43.99800109863281 -153.99800109863278 L 45.00299835205078 -153.99800109863278 L 45.79800033569336 -153.99800109863278 L 54.20199966430664 -153.99800109863278 L 54.99800109863281 -153.99800109863278 L 55.821231842041016 -153.99800109863278 L 56.00299835205078 -153.99800109863278 L 57.00199890136719 -153.99800109863278 L 57.393001556396484 -154.03199768066403 L 57.77799987792969 -154.13400268554685 L 58.150001525878906 -154.30200195312497 L 58.50199890136719 -154.53399658203122 L 58.827999114990234 -154.82499694824216 L 59.124000549316406 -155.16999816894528 L 59.38199996948242 -155.56300354003903 L 59.42449951171875 -155.64799499511716 L 59.599998474121094 -155.99899291992185 L 59.77399826049805 -156.4680023193359 L 59.900001525878906 -156.96400451660153 L 59.97700119018555 -157.47799682617185 L 60.00299835205078 -157.99999999999997 L 65 -157.99999999999997 L 65 -161.99999999999997 L 74 -161.99999999999997 L 74 -157.99999999999997 L 83.00199890136719 -157.99999999999997 L 90.00889587402344 -157.99999999999997 L 93 -157.99999999999997 L 93 -156.50399780273435 L 93 -156.50199890136716 L 83.00199890136719 -151.5010070800781 L 83.00199890136719 -141.49899291992185 L 93 -136.49899291992185 L 93 -136.49699401855466 L 93 -134.99999999999997 L 90.00630187988281 -134.99999999999997 L 83.00199890136719 -134.99999999999997 L 75.0009994506836 -134.99999999999997 L 75.0009994506836 -130.99999999999997 L 66.0009994506836 -130.99999999999997 L 66.0009994506836 -134.99999999999997 L 57.00199890136719 -134.99999999999997 L 54.20199966430664 -134.99999999999997 L 45.79800033569336 -134.99999999999997 L 43.99800109863281 -134.99999999999997 L 42.99800109863281 -134.99999999999997 L 39.99800109863281 -134.99999999999997 L 36.000999450683594 -134.99999999999997 L 36.000999450683594 -130.99999999999997 L 27.000999450683594 -130.99999999999997 L 27.000999450683594 -134.99999999999997 L 7 -134.99999999999997 L 7 -136.49899291992185 L 16.99799919128418 -141.49899291992185 L 16.99799919128418 -151.5010070800781 L 7 -156.50199890136716 L 7 -157.99999999999997 L 16.99799919128418 -157.99999999999997 L 26 -157.99999999999997 L 26 -161.99999999999997 M 40.736026763916016 -153.3703918457031 L 39.99800109863281 -153.73458862304685 L 39.75400161743164 -153.85499572753903 L 38.70100021362305 -154.2129974365234 L 37.61000061035156 -154.42999267578122 L 36.5 -154.50300598144528 L 35.38999938964844 -154.42999267578122 L 34.29899978637695 -154.2129974365234 L 33.24599838256836 -153.85499572753903 L 32.768001556396484 -153.61911010742185 L 32.249000549316406 -153.36300659179685 L 31.323999404907227 -152.74499511718747 L 30.488000869750977 -152.0119934082031 L 29.7549991607666 -151.17599487304685 L 29.136999130249023 -150.2510070800781 L 28.645000457763672 -149.25399780273435 L 28.28700065612793 -148.20100402832028 L 28.138818740844727 -147.45599365234372 L 28.06999969482422 -147.11000061035153 L 28.065046310424805 -147.03363037109372 L 27.99799919128418 -145.99999999999997 L 28.06999969482422 -144.8899993896484 L 28.28700065612793 -143.79899597167966 L 28.645000457763672 -142.7460021972656 L 29.136999130249023 -141.74899291992185 L 29.7549991607666 -140.8240051269531 L 30.488000869750977 -139.98800659179685 L 31.323999404907227 -139.25500488281247 L 32.249000549316406 -138.6369934082031 L 32.768001556396484 -138.3808898925781 L 33.24599838256836 -138.1450042724609 L 34.29899978637695 -137.78700256347653 L 35.38999938964844 -137.57000732421872 L 36.5 -137.49800109863278 L 37.61000061035156 -137.57000732421872 L 38.70100021362305 -137.78700256347653 L 39.75400161743164 -138.1450042724609 L 39.99800109863281 -138.2654113769531 L 40.750999450683594 -138.6369934082031 L 40.959999084472656 -138.7766418457031 L 41.67599868774414 -139.25500488281247 L 42.512001037597656 -139.98800659179685 L 42.99800109863281 -140.54229736328122 L 43.244998931884766 -140.8240051269531 L 43.862998962402344 -141.74899291992185 L 43.99800109863281 -142.0225677490234 L 44.35499954223633 -142.7460021972656 L 44.7130012512207 -143.79899597167966 L 44.93000030517578 -144.8899993896484 L 45.00299835205078 -145.99999999999997 L 44.93000030517578 -147.11000061035153 L 44.86117935180664 -147.45599365234372 L 44.7130012512207 -148.20100402832028 L 44.35499954223633 -149.25399780273435 L 43.99800109863281 -149.97743225097653 L 43.862998962402344 -150.2510070800781 L 43.244998931884766 -151.17599487304685 L 42.99800109863281 -151.45770263671872 L 42.512001037597656 -152.0119934082031 L 41.67599868774414 -152.74499511718747 L 40.750999450683594 -153.36300659179685 L 40.736026763916016 -153.3703918457031 M 55.10200119018555 -137.73199462890622 L 55.29600143432617 -137.85868835449216 L 55.29800033569336 -137.86000061035153 L 55.474998474121094 -138.01100158691403 L 55.630001068115234 -138.18299865722653 L 55.76100158691406 -138.37399291992185 L 55.8650016784668 -138.57899475097653 L 55.941001892089844 -138.7960052490234 L 55.98699951171875 -139.02099609374997 L 56.00299835205078 -139.24999999999997 L 56.00202178955078 -139.26400756835935 L 55.98699951171875 -139.47900390624997 L 55.941001892089844 -139.70399475097653 L 55.8650016784668 -139.9210052490234 L 55.76100158691406 -140.1260070800781 L 55.630001068115234 -140.3170013427734 L 55.474998474121094 -140.4889984130859 L 55.29800033569336 -140.6399993896484 L 55.29600143432617 -140.64131164550778 L 55.10200119018555 -140.76800537109372 L 54.89099884033203 -140.8690032958984 L 54.667999267578125 -140.94299316406247 L 54.4370002746582 -140.98800659179685 L 54.20199966430664 -141.00300598144528 L 45.79800033569336 -141.00300598144528 L 45.5629997253418 -140.98800659179685 L 45.332000732421875 -140.94299316406247 L 45.10900115966797 -140.8690032958984 L 45.055999755859375 -140.84362792968747 L 44.89799880981445 -140.76800537109372 L 44.70199966430664 -140.6399993896484 L 44.525001525878906 -140.4889984130859 L 44.369998931884766 -140.3170013427734 L 44.23899841308594 -140.1260070800781 L 44.1349983215332 -139.9210052490234 L 44.058998107910156 -139.70399475097653 L 44.01300048828125 -139.47900390624997 L 43.99891662597656 -139.26400756835935 L 43.99800109863281 -139.24999999999997 L 44.01300048828125 -139.02099609374997 L 44.058998107910156 -138.7960052490234 L 44.1349983215332 -138.57899475097653 L 44.23899841308594 -138.37399291992185 L 44.369998931884766 -138.18299865722653 L 44.525001525878906 -138.01100158691403 L 44.70199966430664 -137.86000061035153 L 44.89799880981445 -137.73199462890622 L 45.055999755859375 -137.65637207031247 L 45.10900115966797 -137.63099670410153 L 45.332000732421875 -137.55700683593747 L 45.5629997253418 -137.51300048828122 L 45.79800033569336 -137.49800109863278 L 54.20199966430664 -137.49800109863278 L 54.4370002746582 -137.51300048828122 L 54.667999267578125 -137.55700683593747 L 54.89099884033203 -137.63099670410153 L 55.10200119018555 -137.73199462890622 M 55.64500045776367 -142.7460021972656 L 56.00299835205078 -142.0205383300781 L 56.137001037597656 -141.74899291992185 L 56.755001068115234 -140.8240051269531 L 57.00199890136719 -140.54229736328122 L 57.487998962402344 -139.98800659179685 L 58.32400131225586 -139.25500488281247 L 59.249000549316406 -138.6369934082031 L 60.24599838256836 -138.1450042724609 L 61.29899978637695 -137.78700256347653 L 62.38999938964844 -137.57000732421872 L 63.5 -137.49800109863278 L 64.61000061035156 -137.57000732421872 L 65.53600311279297 -137.7541809082031 L 65.70099639892578 -137.78700256347653 L 66.75399780273438 -138.1450042724609 L 67.7509994506836 -138.6369934082031 L 68.6760025024414 -139.25500488281247 L 69.51200103759766 -139.98800659179685 L 70.24500274658203 -140.8240051269531 L 70.86299896240234 -141.74899291992185 L 71.3550033569336 -142.7460021972656 L 71.71299743652344 -143.79899597167966 L 71.93000030517578 -144.8899993896484 L 72.00299835205078 -145.99999999999997 L 71.93000030517578 -147.11000061035153 L 71.8611831665039 -147.45599365234372 L 71.71299743652344 -148.20100402832028 L 71.3550033569336 -149.25399780273435 L 70.86299896240234 -150.2510070800781 L 70.24500274658203 -151.17599487304685 L 69.51200103759766 -152.0119934082031 L 68.6760025024414 -152.74499511718747 L 67.7509994506836 -153.36300659179685 L 66.75399780273438 -153.85499572753903 L 66.33338928222656 -153.99800109863278 L 65.70099639892578 -154.2129974365234 L 65.53600311279297 -154.24581909179685 L 64.61000061035156 -154.42999267578122 L 63.5 -154.50300598144528 L 62.38999938964844 -154.42999267578122 L 61.29899978637695 -154.2129974365234 L 60.66661071777344 -153.99800109863278 L 60.24599838256836 -153.85499572753903 L 59.249000549316406 -153.36300659179685 L 58.32400131225586 -152.74499511718747 L 57.487998962402344 -152.0119934082031 L 57.00199890136719 -151.45770263671872 L 56.755001068115234 -151.17599487304685 L 56.137001037597656 -150.2510070800781 L 56.00299835205078 -149.97946166992185 L 55.64500045776367 -149.25399780273435 L 55.2869987487793 -148.20100402832028 L 55.13882064819336 -147.45599365234372 L 55.06999969482422 -147.11000061035153 L 54.99800109863281 -145.99999999999997 L 55.06999969482422 -144.8899993896484 L 55.2869987487793 -143.79899597167966 L 55.64500045776367 -142.7460021972656 z"
     fill="none"
     stroke="rgb(255,0,0)"
     stroke-width="0.001mm"
     id="path6"
     style="stroke-width:0.10583333;stroke-miterlimit:4;stroke-dasharray:none" />
</svg>
